<?xml version="1.0" encoding="iso-8859-1"?>
<!-- Uploaded to: SVG Repo, www.svgrepo.com, Generator: SVG Repo Mixer Tools -->
<svg height="800px" width="800px" version="1.1" id="Layer_1" xmlns="http://www.w3.org/2000/svg" xmlns:xlink="http://www.w3.org/1999/xlink" 
	 viewBox="0 0 256.496 256.496" xml:space="preserve">
<g>
	<path style="fill:#F9C890;" d="M160.415,255.496h-13.34c-7.057,0-12.778-5.721-12.778-12.778v-92.235h38.896v92.235
		C173.193,249.775,167.471,255.496,160.415,255.496z"/>
	<path style="fill:#F3A069;" d="M149.734,150.484h-15.438v92.235c0,7.057,5.721,12.778,12.778,12.778h2.66V150.484z"/>
	<circle style="fill:#956958;" cx="81.253" cy="24.177" r="24.177"/>
	<path style="fill:#7C5849;" d="M81.253,48.354c-13.352,0-24.177-10.824-24.177-24.177S67.9,0,81.253,0V48.354z"/>
	<path style="fill:#F8E0B3;" d="M87.923,255.496h-13.34c-7.057,0-12.778-5.721-12.778-12.778v-92.235h38.896v92.235
		C100.701,249.775,94.979,255.496,87.923,255.496z"/>
	<path style="fill:#DECAA2;" d="M81.253,150.484H61.805v92.235c0,7.057,5.721,12.778,12.778,12.778h6.67V150.484z"/>
	<circle style="fill:#FEFBEF;" cx="153.745" cy="27.177" r="24.177"/>
	<path style="fill:#F7E3CD;" d="M153.745,51.354c-13.352,0-24.177-10.824-24.177-24.177S140.393,3,153.745,3V51.354z"/>
	<path style="fill:#F9C890;" d="M169.568,164.271h-31.648c-7.444,0-13.479-6.035-13.479-13.479V84.134
		c0-11.517,9.336-20.853,20.853-20.853h2.597c19.416,0,35.156,15.74,35.156,35.156v52.355
		C183.048,158.236,177.014,164.271,169.568,164.271z"/>
	<path style="fill:#F3A069;" d="M153.446,63.722c-1.809-0.287-3.663-0.441-5.553-0.441h-2.597c-11.517,0-20.853,9.336-20.853,20.853
		v66.658c0,7.445,6.035,13.479,13.479,13.479h15.524L153.446,63.722L153.446,63.722z"/>
	<path style="fill:#F8E0B3;" d="M190.941,77.32c0-14.381-11.658-26.039-26.039-26.039H69.715c-9.812,0-17.766,7.954-17.766,17.766
		v69.745c0,7.444,6.035,13.479,13.479,13.479h31.648c7.444,0,13.479-6.035,13.479-13.479V77.32H190.941L190.941,77.32z"/>
	<path style="fill:#DECAA2;" d="M81.253,51.281H69.715c-9.812,0-17.766,7.954-17.766,17.766v69.745
		c0,7.445,6.035,13.479,13.479,13.479h15.824L81.253,51.281L81.253,51.281z"/>
</g>
<path style="fill:#956958;" d="M196.275,256.496L196.275,256.496c-2.946,0-5.333-2.388-5.333-5.333V105.248h10.667v145.915
	C201.609,254.109,199.221,256.496,196.275,256.496z"/>
<path style="fill:#F9C890;" d="M204.548,117.748h-25c-9.941,0-18-8.059-18-18l0,0h29.521c7.445,0,13.479,6.035,13.479,13.479
	V117.748z"/>
</svg>